<?xml version="1.0" encoding="UTF-8" standalone="no"?>
<!-- Created with Inkscape (http://www.inkscape.org/) -->

<svg
   width="116.42151mm"
   height="116.422mm"
   viewBox="0 0 116.42151 116.422"
   version="1.1"
   id="svg5"
   xml:space="preserve"
   sodipodi:docname="logo_marcosware_blank.svg"
   inkscape:version="1.2.2 (732a01da63, 2022-12-09)"
   inkscape:export-filename="logo_marcosware_blank2.png"
   inkscape:export-xdpi="359.88104"
   inkscape:export-ydpi="359.88104"
   xmlns:inkscape="http://www.inkscape.org/namespaces/inkscape"
   xmlns:sodipodi="http://sodipodi.sourceforge.net/DTD/sodipodi-0.dtd"
   xmlns="http://www.w3.org/2000/svg"
   xmlns:svg="http://www.w3.org/2000/svg"><sodipodi:namedview
     id="namedview7"
     pagecolor="#ffffff"
     bordercolor="#666666"
     borderopacity="1.0"
     inkscape:showpageshadow="2"
     inkscape:pageopacity="0.0"
     inkscape:pagecheckerboard="0"
     inkscape:deskcolor="#d1d1d1"
     inkscape:document-units="mm"
     showgrid="false"
     inkscape:zoom="0.5"
     inkscape:cx="-214"
     inkscape:cy="220"
     inkscape:window-width="1366"
     inkscape:window-height="705"
     inkscape:window-x="-8"
     inkscape:window-y="-8"
     inkscape:window-maximized="1"
     inkscape:current-layer="layer1" /><defs
     id="defs2" /><g
     inkscape:label="Camada 1"
     inkscape:groupmode="layer"
     id="layer1"
     transform="translate(-40.184749,-57.16928)"><path
       id="path3080"
       style="display:inline;fill:#4b0075;fill-opacity:1;stroke-width:0.253682;stroke-dasharray:none"
       d="m 40.388648,80.159699 c 0,0 -0.161869,33.076261 -0.154629,32.889691 l -0.04927,32.93502 3.409558,4.48747 7.197254,8.24445 13.543879,14.80645 12.54912,-14.39386 -16.445293,-18.64798 h -8.261108 c 0.242709,0.22438 16.683249,18.64798 16.683249,18.64798 -0.01169,0.0385 -4.814517,4.87925 -4.814517,4.87925 l -5.98371,-6.90294 -7.562163,-9.14824 -5.601467,-7.47605 21.830616,-23.69818 0.221251,23.69818 4.164739,-4.607 -0.0648,-23.28832 11.390924,-13.541019 v -7.569653 l -18.636032,20.500012 -8.24681,8.34516 V 92.440707 l -4.75882,5.329005 v 28.397728 c -0.105028,-0.14615 -5.220677,5.41171 -5.220677,5.41171 l 0.433285,-49.781007 16.61819,-16.894453 3.381043,3.550004 18.255962,20.549634 8.4612,9.855722 c 0.05784,0.06737 5.278137,6.13812 5.375862,6.13812 0.09773,0 0.75872,-0.68388 1.46953,-1.51981 3.297956,-3.878466 6.766036,-7.775328 14.660176,-16.471841 4.68936,-5.165955 10.98408,-12.101389 13.98818,-15.411967 3.02472,-3.333336 5.6537,-6.019266 5.89117,-6.019266 0.42831,0 14.41506,15.130439 15.68734,16.97001 l 0.66536,0.962215 -0.003,30.655469 -0.003,30.65495 -1.74366,2.11667 c -0.95905,1.16416 -4.91704,5.70899 -8.79507,10.09911 l -7.05093,7.98194 -3.73643,-4.05711 -3.7369,-4.05712 -0.0824,-24.15871 -0.0819,-18.48619 16.64868,-0.0858 6.21555,-5.50975 -28.03243,-0.17801 v 51.50352 l 12.80585,13.6058 4.73377,-4.72881 8.90825,-9.87639 c 4.89941,-5.43202 9.17439,-10.28213 9.50021,-10.77814 l 0.59243,-0.90227 -0.0478,-33.21603 C 156.52134,88.0847 156.44529,80.7719 156.20895,80.40386 156.04291,80.145304 145.90428,69.498275 145.90428,69.498275 L 134.23848,57.16928 c 0,0 -15.17481,16.002811 -22.45426,23.750807 -4.42171,4.874914 -9.28714,10.269086 -10.81198,11.986856 L 98.105489,96.030264 95.176262,92.64236 C 89.22216,85.972696 82.249357,78.055479 82.192766,78.009693 L 62.631422,57.404837 Z m 91.636682,-1.59862 v 14.78175 13.461461 l 5.31607,0.0315 V 73.465576 Z m -49.583048,25.351561 -3.976979,4.35223 c 0.276248,0.18072 19.640186,22.10446 19.640186,22.10446 l 3.672081,-4.11467 c 0,0 4.75696,-4.56621 8.42425,-8.61538 3.66729,-4.04909 8.40626,-9.15732 8.40626,-9.15732 h -8.36364 c -8.97099,10.23987 -12.138951,12.67339 -12.138951,12.67339 z m 49.621538,12.06131 v 41.62812 l 5.44528,-6.05229 v -35.57583 z"
       sodipodi:nodetypes="cccccccccccccccccccccccccccccccssscscccccccccccccccccccccsccccccccccccccccccccccccccccc"
       inkscape:label="path3080" /></g></svg>
