<?xml version="1.0" encoding="UTF-8" standalone="no"?>
<!-- Created with Inkscape (http://www.inkscape.org/) -->

<svg
   width="116.42151mm"
   height="116.422mm"
   viewBox="0 0 116.42151 116.422"
   version="1.1"
   id="svg5"
   xml:space="preserve"
   inkscape:version="1.2.2 (732a01da63, 2022-12-09)"
   sodipodi:docname="logo_marcosware_fill.svg"
   xmlns:inkscape="http://www.inkscape.org/namespaces/inkscape"
   xmlns:sodipodi="http://sodipodi.sourceforge.net/DTD/sodipodi-0.dtd"
   xmlns="http://www.w3.org/2000/svg"
   xmlns:svg="http://www.w3.org/2000/svg"><sodipodi:namedview
     id="namedview7"
     pagecolor="#ffffff"
     bordercolor="#666666"
     borderopacity="1.0"
     inkscape:showpageshadow="2"
     inkscape:pageopacity="0.0"
     inkscape:pagecheckerboard="0"
     inkscape:deskcolor="#d1d1d1"
     inkscape:document-units="mm"
     showgrid="false"
     inkscape:zoom="0.70710678"
     inkscape:cx="87.681241"
     inkscape:cy="147.07821"
     inkscape:window-width="1366"
     inkscape:window-height="705"
     inkscape:window-x="-8"
     inkscape:window-y="-8"
     inkscape:window-maximized="1"
     inkscape:current-layer="layer1" /><defs
     id="defs2" /><g
     inkscape:label="Camada 1"
     inkscape:groupmode="layer"
     id="layer1"
     transform="translate(-40.184749,-57.16928)"><path
       style="display:inline;fill:#000000;fill-opacity:1;fill-rule:evenodd;stroke:#000005;stroke-width:0.291017;stroke-dasharray:none"
       d="m 59.484558,159.71265 c -6.187257,-5.62634 -8.27991,-9.49611 -11.358725,-13.59647 -1.467994,-1.95508 -3.399264,-5.48165 -3.401127,-5.5502 -0.0033,-0.12205 22.118783,-25.60418 22.118783,-25.60418 l 0.425663,8.51666 -14.938716,17.04519 c 0,0 5.388266,6.30634 8.093967,9.32991 l 8.283361,9.2565 -1.384809,1.41495 c -0.761643,0.77821 -1.810399,1.84721 -2.330566,2.37554 l -0.945759,0.96059 z"
       id="path6725"
       sodipodi:nodetypes="ssscccscsscs" /><path
       style="display:inline;fill:#000000;fill-opacity:1;fill-rule:evenodd;stroke:#000005;stroke-width:0.742857;stroke-dasharray:none"
       d="m 129.32592,160.69412 -3.64646,-3.89332 -0.12685,-21.15129 -0.12685,-21.15129 h 8.19299 8.19299 l 3.29672,-2.89987 3.29672,-2.89987 -19.02621,-0.28086 -8.9591,-0.28616 0.0678,-2.38698 -2.08838,2.39513 -8.04657,-0.003 -4.63377,4.98226 c -2.54858,2.74025 -5.28669,5.59953 -6.084704,6.35397 l -1.450936,1.37171 -8.714629,-9.62308 -10.684663,-3.04158 -2.249941,-2.52573 5.751422,-10.474379 -0.01472,-3.225641 c 0,0 -4.905599,4.684653 -10.846312,11.22663 -5.940712,6.54197 -11.920001,12.96062 -13.287306,14.26367 l -2.486013,2.36918 v -13.72718 c 0,-7.549948 -0.125993,-13.671053 -0.279985,-13.602454 -0.15399,0.0686 -1.311271,1.323857 -2.571736,2.789465 l -2.291755,2.664739 v 13.99617 13.99618 l -2.441569,2.6092 -2.441571,2.60921 0.212732,-10.81847 c 0.117002,-5.95015 0.212732,-16.99117 0.212732,-24.535586 V 82.07791 l 6.429342,-6.516 c 3.536139,-3.583799 7.294464,-7.40489 8.351835,-8.491311 l 1.922493,-1.975311 12.327984,13.943869 8.232074,8.03649 9.348267,12.003168 c 0,0 5.374087,6.046755 5.522866,5.986835 0.148784,-0.0599 6.905803,-8.606435 15.644243,-18.306254 8.73844,-9.699815 17.30132,-17.964905 18.39998,-19.052853 l 1.99756,-2.70569 8.75961,8.852681 7.30482,9.447991 v 30.726445 30.72644 l -3.33017,3.86139 c -1.83159,2.12376 -5.72831,6.58618 -8.65937,9.9165 l -5.3292,6.05512 z m 8.27796,-27.01107 v -18.0623 h -2.91463 -2.91464 v 21.22629 21.22628 l 2.91464,-3.16398 2.91463,-3.16398 z m 0,-43.506338 c 0,-9.260883 -0.0932,-16.837967 -0.20714,-16.837967 -0.11394,0 -1.42077,1.136562 -2.90407,2.525695 l -2.69691,2.525695 -0.0106,14.312272 -0.0106,14.312273 h 2.91464 2.91463 z"
       id="path6562"
       sodipodi:nodetypes="cccccccccccccssccccccsscssscccccsscssccccssscccccsscccccccccccssscccccs" /><path
       id="path3080"
       style="display:inline;fill:#4b0075;fill-opacity:1;stroke-width:0.253682;stroke-dasharray:none"
       d="m 40.388648,80.159699 c 0,0 -0.161869,33.076261 -0.154629,32.889691 l -0.04927,32.93502 3.409558,4.48747 7.197254,8.24445 13.543879,14.80645 12.54912,-14.39386 -16.445293,-18.64798 h -8.261108 c 0.242709,0.22438 16.683249,18.64798 16.683249,18.64798 -0.01169,0.0385 -4.814517,4.87925 -4.814517,4.87925 l -5.98371,-6.90294 -7.562163,-9.14824 -5.601467,-7.47605 21.830616,-23.69818 0.221251,23.69818 4.164739,-4.607 -0.0648,-23.28832 11.390924,-13.541019 v -7.569653 l -18.636032,20.500012 -8.24681,8.34516 V 92.440707 l -4.75882,5.329005 v 28.397728 c -0.105028,-0.14615 -5.220677,5.41171 -5.220677,5.41171 l 0.433285,-49.781007 16.61819,-16.894453 3.381043,3.550004 18.255962,20.549634 8.4612,9.855722 c 0.05784,0.06737 5.278137,6.13812 5.375862,6.13812 0.09773,0 0.75872,-0.68388 1.46953,-1.51981 3.297956,-3.878466 6.766036,-7.775328 14.660176,-16.471841 4.68936,-5.165955 10.98408,-12.101389 13.98818,-15.411967 3.02472,-3.333336 5.6537,-6.019266 5.89117,-6.019266 0.42831,0 14.41506,15.130439 15.68734,16.97001 l 0.66536,0.962215 -0.003,30.655469 -0.003,30.65495 -1.74366,2.11667 c -0.95905,1.16416 -4.91704,5.70899 -8.79507,10.09911 l -7.05093,7.98194 -3.73643,-4.05711 -3.7369,-4.05712 -0.0824,-24.15871 -0.0819,-18.48619 16.64868,-0.0858 6.21555,-5.50975 -28.03243,-0.17801 v 51.50352 l 12.80585,13.6058 4.73377,-4.72881 8.90825,-9.87639 c 4.89941,-5.43202 9.17439,-10.28213 9.50021,-10.77814 l 0.59243,-0.90227 -0.0478,-33.21603 C 156.52134,88.0847 156.44529,80.7719 156.20895,80.40386 156.04291,80.145304 145.90428,69.498275 145.90428,69.498275 L 134.23848,57.16928 c 0,0 -15.17481,16.002811 -22.45426,23.750807 -4.42171,4.874914 -9.28714,10.269086 -10.81198,11.986856 L 98.105489,96.030264 95.176262,92.64236 C 89.22216,85.972696 82.249357,78.055479 82.192766,78.009693 L 62.631422,57.404837 Z m 91.636682,-1.59862 v 14.78175 13.461461 l 5.31607,0.0315 V 73.465576 Z m -49.583048,25.351561 -3.976979,4.35223 c 0.276248,0.18072 19.640186,22.10446 19.640186,22.10446 l 3.672081,-4.11467 c 0,0 4.75696,-4.56621 8.42425,-8.61538 3.66729,-4.04909 8.40626,-9.15732 8.40626,-9.15732 h -8.36364 c -8.97099,10.23987 -12.138951,12.67339 -12.138951,12.67339 z m 49.621538,12.06131 v 41.62812 l 5.44528,-6.05229 v -35.57583 z"
       sodipodi:nodetypes="cccccccccccccccccccccccccccccccssscscccccccccccccccccccccsccccccccccccccccccccccccccccc"
       inkscape:label="path3080" /></g></svg>
