<?xml version="1.0" encoding="UTF-8" standalone="no"?>
<!-- Created with Inkscape (http://www.inkscape.org/) -->

<svg
   width="116.42151mm"
   height="116.422mm"
   viewBox="0 0 116.42151 116.422"
   version="1.1"
   id="svg5"
   xml:space="preserve"
   sodipodi:docname="pfp_marcosware_blank.svg"
   inkscape:version="1.2.2 (732a01da63, 2022-12-09)"
   inkscape:export-filename="logo_marcosware_blank3.png"
   inkscape:export-xdpi="279.26111"
   inkscape:export-ydpi="279.26111"
   xmlns:inkscape="http://www.inkscape.org/namespaces/inkscape"
   xmlns:sodipodi="http://sodipodi.sourceforge.net/DTD/sodipodi-0.dtd"
   xmlns="http://www.w3.org/2000/svg"
   xmlns:svg="http://www.w3.org/2000/svg"><sodipodi:namedview
     id="namedview7"
     pagecolor="#ffffff"
     bordercolor="#666666"
     borderopacity="1.0"
     inkscape:showpageshadow="2"
     inkscape:pageopacity="0.0"
     inkscape:pagecheckerboard="0"
     inkscape:deskcolor="#d1d1d1"
     inkscape:document-units="mm"
     showgrid="false"
     inkscape:zoom="0.70710678"
     inkscape:cx="4.2426407"
     inkscape:cy="142.83557"
     inkscape:window-width="1366"
     inkscape:window-height="705"
     inkscape:window-x="-8"
     inkscape:window-y="-8"
     inkscape:window-maximized="1"
     inkscape:current-layer="layer1" /><defs
     id="defs2" /><g
     inkscape:label="Camada 1"
     inkscape:groupmode="layer"
     id="layer1"
     transform="translate(-40.184749,-57.16928)"><path
       id="path3080"
       style="display:inline;fill:#4b0075;fill-opacity:1;stroke-width:0.197028;stroke-dasharray:none"
       d="m 53.343115,88.025352 c 0,0 -0.125719,25.689488 -0.120096,25.544588 l -0.03827,25.57979 2.648109,3.4853 5.589907,6.40326 10.519151,11.49979 9.74655,-11.17935 -12.772599,-14.48341 h -6.416171 c 0.188504,0.17427 12.957413,14.48341 12.957413,14.48341 -0.0091,0.0299 -3.739301,3.78959 -3.739301,3.78959 l -4.64738,-5.36133 -5.873321,-7.10521 -4.350503,-5.80646 16.95523,-18.40577 0.17184,18.40577 3.234635,-3.57814 -0.05033,-18.08744 8.847011,-10.51697 v -5.879152 l -14.474082,15.921832 -6.405067,6.48148 V 97.563698 l -3.696043,4.138902 v 22.05579 c -0.08157,-0.11351 -4.054754,4.20314 -4.054754,4.20314 l 0.336525,-38.66364 12.906885,-13.121491 2.625961,2.757198 14.178897,15.960377 6.571575,7.654686 c 0.0449,0.0523 4.09938,4.76732 4.175279,4.76732 0.0759,0 0.589276,-0.53115 1.141342,-1.1804 2.561432,-3.0123 5.254982,-6.03889 11.386152,-12.793254 3.6421,-4.012265 8.53103,-9.39884 10.86422,-11.970082 2.34922,-2.588917 4.39108,-4.67501 4.57551,-4.67501 0.33266,0 11.19578,11.751426 12.18393,13.180174 l 0.51675,0.747328 -0.002,23.809324 -0.002,23.80892 -1.35425,1.64396 c -0.74487,0.90417 -3.81894,4.43403 -6.83088,7.84372 l -5.47625,6.19937 -2.902,-3.15105 -2.90235,-3.15107 -0.064,-18.76345 -0.0636,-14.35775 12.93057,-0.0666 4.82745,-4.27928 -21.77201,-0.13826 V 150.024 l 9.94596,10.56728 3.67658,-3.67275 6.91879,-7.67074 c 3.80523,-4.21891 7.12549,-7.98586 7.37855,-8.3711 l 0.46012,-0.70077 -0.0371,-25.79805 c -0.0288,-20.197371 -0.0879,-25.877037 -0.27144,-26.162884 -0.12897,-0.200814 -8.00335,-8.47009 -8.00335,-8.47009 l -9.06121,-9.575616 c 0,0 -11.78584,12.428975 -17.43959,18.446646 -3.43423,3.786222 -7.21307,7.975738 -8.39737,9.309886 l -2.226514,2.425808 -2.275053,-2.631303 C 91.270738,92.540159 85.855157,86.391058 85.811206,86.355498 L 70.618456,70.352231 Z m 71.171645,-1.241607 v 11.480609 10.455176 l 4.12885,0.0245 V 82.826198 Z m -38.509764,19.689915 -3.088808,3.38026 c 0.214555,0.14036 15.253988,17.16797 15.253988,17.16797 l 2.852004,-3.19576 c 0,0 3.69459,-3.54646 6.54287,-6.69134 2.84829,-3.14483 6.52892,-7.11226 6.52892,-7.11226 h -6.49582 c -6.96752,7.95305 -9.427974,9.8431 -9.427974,9.8431 z m 38.539664,9.36771 v 32.3315 l 4.22919,-4.70066 v -27.63084 z"
       sodipodi:nodetypes="cccccccccccccccccccccccccccccccssscscccccccccccccccccccccsccccccccccccccccccccccccccccc"
       inkscape:label="path3080" /></g></svg>
