<?xml version="1.0" encoding="UTF-8" standalone="no"?>
<!-- Created with Inkscape (http://www.inkscape.org/) -->

<svg
   width="116.42151mm"
   height="116.422mm"
   viewBox="0 0 116.42151 116.422"
   version="1.1"
   id="svg5"
   xml:space="preserve"
   inkscape:version="1.2.2 (732a01da63, 2022-12-09)"
   sodipodi:docname="pfp_marcosware_fill.svg"
   xmlns:inkscape="http://www.inkscape.org/namespaces/inkscape"
   xmlns:sodipodi="http://sodipodi.sourceforge.net/DTD/sodipodi-0.dtd"
   xmlns="http://www.w3.org/2000/svg"
   xmlns:svg="http://www.w3.org/2000/svg"><sodipodi:namedview
     id="namedview7"
     pagecolor="#ffffff"
     bordercolor="#666666"
     borderopacity="1.0"
     inkscape:showpageshadow="2"
     inkscape:pageopacity="0.0"
     inkscape:pagecheckerboard="0"
     inkscape:deskcolor="#d1d1d1"
     inkscape:document-units="mm"
     showgrid="false"
     inkscape:zoom="0.70710678"
     inkscape:cx="87.681241"
     inkscape:cy="147.07821"
     inkscape:window-width="1366"
     inkscape:window-height="705"
     inkscape:window-x="-8"
     inkscape:window-y="-8"
     inkscape:window-maximized="1"
     inkscape:current-layer="layer1" /><defs
     id="defs2" /><g
     inkscape:label="Camada 1"
     inkscape:groupmode="layer"
     id="layer1"
     transform="translate(-40.184749,-57.16928)"><path
       style="display:inline;fill:#000000;fill-opacity:1;fill-rule:evenodd;stroke:#000005;stroke-width:0.226026;stroke-dasharray:none"
       d="m 68.174485,149.8121 c -4.805505,-4.36983 -6.430822,-7.37538 -8.82207,-10.56003 -1.140158,-1.51846 -2.640132,-4.25746 -2.641579,-4.3107 -0.0026,-0.0948 17.179167,-19.88611 17.179167,-19.88611 l 0.330603,6.61467 -11.602569,13.23856 c 0,0 4.184947,4.89798 6.286404,7.24631 l 6.433503,7.18929 -1.075551,1.09895 c -0.591551,0.60442 -1.406096,1.43468 -1.810098,1.84502 l -0.73455,0.74607 z"
       id="path6725"
       sodipodi:nodetypes="ssscccscsscs" /><path
       style="display:inline;fill:#000000;fill-opacity:1;fill-rule:evenodd;stroke:#000005;stroke-width:0.576959;stroke-dasharray:none"
       d="m 122.41872,150.57438 -2.83213,-3.02384 -0.0985,-16.42767 -0.0985,-16.42766 h 6.36331 6.36331 l 2.56049,-2.25226 2.56049,-2.25225 -14.77723,-0.21814 -6.95834,-0.22225 0.0527,-1.85391 -1.622,1.86024 -6.24958,-0.002 -3.59895,3.86959 c -1.97943,2.12828 -4.106055,4.34901 -4.725855,4.93497 l -1.12691,1.06537 -6.768458,-7.474 -8.298541,-2.36232 -1.747479,-1.96167 4.467002,-8.135183 -0.01143,-2.505273 c 0,0 -3.81007,3.638446 -8.424089,8.719436 -4.614019,5.08098 -9.258,10.06618 -10.319956,11.07823 l -1.930831,1.84008 v -10.66158 c 0,-5.86385 -0.09786,-10.617957 -0.217458,-10.564678 -0.1196,0.05328 -1.018435,1.028206 -1.99741,2.166506 l -1.779955,2.069632 v 10.87047 10.87048 l -1.896313,2.0265 -1.896313,2.0265 0.165224,-8.40243 c 0.09087,-4.62133 0.165224,-13.1966 0.165224,-19.05616 V 89.515178 l 4.993527,-5.060811 c 2.746441,-2.783445 5.665448,-5.751189 6.486685,-6.594985 l 1.493157,-1.534174 9.574871,10.829848 6.393669,6.241737 7.260591,9.322557 c 0,0 4.173934,4.69636 4.289488,4.64982 0.115557,-0.0465 5.36358,-6.6844 12.15054,-14.218001 6.78694,-7.533599 13.43754,-13.952884 14.29085,-14.797865 l 1.55146,-2.101441 6.80339,6.875652 5.67349,7.338014 v 23.864451 23.86444 l -2.58647,2.99904 c -1.42255,1.64947 -4.44905,5.11532 -6.72554,7.70189 l -4.13907,4.70286 z m 6.4293,-20.97881 v -14.02852 h -2.26373 -2.26373 v 16.48592 16.48591 l 2.26373,-2.45739 2.26373,-2.45738 z m 0,-33.790259 c 0,-7.192692 -0.0724,-13.07762 -0.16088,-13.07762 -0.0885,0 -1.10348,0.882739 -2.25552,1.961643 l -2.09463,1.961643 -0.008,11.115977 -0.008,11.115976 h 2.26374 2.26372 z"
       id="path6562"
       sodipodi:nodetypes="cccccccccccccssccccccsscssscccccsscssccccssscccccsscccccccccccssscccccs" /><path
       id="path3080"
       style="display:inline;fill:#4b0075;fill-opacity:1;stroke-width:0.197029;stroke-dasharray:none"
       d="m 53.343116,88.025352 c 0,0 -0.12572,25.689488 -0.120097,25.544588 l -0.03827,25.57979 2.648128,3.4853 5.589947,6.40326 10.51923,11.49979 9.746623,-11.17935 -12.772694,-14.48341 h -6.416219 c 0.188507,0.17427 12.957509,14.48341 12.957509,14.48341 -0.0091,0.0299 -3.739329,3.78959 -3.739329,3.78959 l -4.647414,-5.36133 -5.873364,-7.10521 -4.350535,-5.80646 16.955354,-18.40577 0.171841,18.40577 3.23466,-3.57814 -0.05033,-18.08744 8.847078,-10.51697 v -5.879152 l -14.474192,15.921832 -6.405114,6.48148 V 97.563698 l -3.69607,4.138902 v 22.05579 c -0.08157,-0.11351 -4.054784,4.20314 -4.054784,4.20314 l 0.336523,-38.66364 12.906979,-13.121491 2.625981,2.757198 14.179,15.960377 6.571626,7.654686 c 0.04492,0.0523 4.099412,4.76732 4.175313,4.76732 0.0759,0 0.58928,-0.53115 1.141351,-1.1804 2.561453,-3.0123 5.255033,-6.03889 11.386233,-12.793254 3.64212,-4.012265 8.53109,-9.39884 10.86431,-11.970082 2.34923,-2.588917 4.3911,-4.67501 4.57554,-4.67501 0.33266,0 11.19586,11.751426 12.18401,13.180174 l 0.51677,0.747328 -0.002,23.809324 -0.002,23.80892 -1.35426,1.64396 c -0.74488,0.90417 -3.81896,4.43403 -6.83094,7.84372 l -5.4763,6.19937 -2.902,-3.15105 -2.90237,-3.15107 -0.064,-18.76345 -0.0636,-14.35775 12.93066,-0.0666 4.82748,-4.27928 -21.77216,-0.13826 V 150.024 l 9.94602,10.56728 3.67661,-3.67275 6.91884,-7.67074 c 3.80526,-4.21891 7.12554,-7.98586 7.3786,-8.3711 l 0.46013,-0.70077 -0.0371,-25.79805 c -0.0288,-20.197371 -0.0879,-25.877037 -0.27145,-26.162884 -0.12896,-0.200814 -8.00341,-8.47009 -8.00341,-8.47009 l -9.06127,-9.575616 c 0,0 -11.78594,12.428975 -17.43972,18.446646 -3.43424,3.786222 -7.21311,7.975738 -8.39742,9.309886 l -2.226547,2.425808 -2.275065,-2.631303 C 91.271019,92.540159 85.855398,86.391058 85.811445,86.355498 L 70.618584,70.352231 Z m 71.172174,-1.241607 v 11.480609 10.455176 l 4.12887,0.0245 V 82.826198 Z m -38.510051,19.689915 -3.088832,3.38026 c 0.214556,0.14036 15.254096,17.16797 15.254096,17.16797 l 2.852027,-3.19576 c 0,0 3.69462,-3.54646 6.54293,-6.69134 2.8483,-3.14483 6.52895,-7.11226 6.52895,-7.11226 h -6.49585 c -6.96757,7.95305 -9.428057,9.8431 -9.428057,9.8431 z m 38.539941,9.36771 v 32.3315 l 4.22923,-4.70066 v -27.63084 z"
       sodipodi:nodetypes="cccccccccccccccccccccccccccccccssscscccccccccccccccccccccsccccccccccccccccccccccccccccc"
       inkscape:label="path3080" /></g></svg>
